{"title":"See No Evil - S01E05 - Mansion Murder Cam","uid":15216204,"size":396551646,"categoryP":"video","categoryS":"tv_shows","magnet":"?xt=urn:btih:0de585b161fe5b78ea659a5271c9cd5d2b99fdd2&amp;dn=See+No+Evil+-+S01E05+-+Mansion+Murder+Cam&amp;tr=udp%3A%2F%2Ftracker.leechers-paradise.org%3A6969&amp;tr=udp%3A%2F%2Fzer0day.ch%3A1337&amp;tr=udp%3A%2F%2Fopen.demonii.com%3A1337&amp;tr=udp%3A%2F%2Ftracker.coppersurfer.tk%3A6969&amp;tr=udp%3A%2F%2Fexodus.desync.com%3A6969","seeders":5,"leechers":1,"uploader":"Bullrout","files":1,"time":1467695185,"description":"See No Evil - S01E05 - Mansion Murder Cam\r\n\r\nIn Pensacola Florida, two loving parents are brutally gunned down in their own home. The cop's only witness...one that never lies: surveillance cameras. It's what they must rely on, to catch the killers and bring them to justice.\r\n\r\nComplete name                            : See No Evil - S01E05 - Mansion Murder Cam.mp4\r\nFormat                                   : MPEG-4\r\nFormat profile                           : Base Media / Version 2\r\nCodec ID                                 : mp42 (mp42/isom/avc1)\r\nFile size                                : 378 MiB\r\nDuration                                 : 47mn 33s\r\nOverall bit rate mode                    : Variable\r\nOverall bit rate                         : 1 112 Kbps\r\n\r\nVideo\r\nID                                       : 2\r\nFormat                                   : AVC\r\nFormat/Info                              : Advanced Video Codec\r\nFormat profile                           :   \r\nFormat settings, CABAC                   : Yes\r\nFormat settings, ReFrames                : 3 frames\r\nCodec ID                                 : avc1\r\nCodec ID/Info                            : Advanced Video Coding\r\nDuration                                 : 47mn 33s\r\nBit rate mode                            : Variable\r\nBit rate                                 : 980 Kbps\r\nMaximum bit rate                         : 1 000 Kbps\r\nWidth                                    : 720 pixels\r\nHeight                                   : 404 pixels\r\nDisplay aspect ratio                     : 16:9\r\nOriginal display aspect ratio            : 16:9\r\nFrame rate mode                          : Constant\r\nFrame rate                               : 25.000 fps\r\nStandard                                 : PAL\r\nColor space                              : YUV\r\nChroma subsampling                       : 4:2:0\r\nBit depth                                : 8 bits\r\nScan type                                : Progressive\r\nBits/(Pixel*Frame)                       : 0.135\r\nStream size                              : 333 MiB (88%)\r\nWriting library                          : x264 core 112\r\nColor range                              : Limited\r\nColor primaries                          : BT.601 PAL\r\nTransfer characteristics                 : BT.470 System B, BT.470 System G\r\nMatrix coefficients                      : BT.601\r\n\r\nAudio\r\nID                                       : 1\r\nFormat                                   : AAC\r\nFormat/Info                              : Advanced Audio Codec\r\nFormat profile                           : LC\r\nCodec ID                                 : 40\r\nDuration                                 : 47mn 33s\r\nBit rate mode                            : Variable\r\nBit rate                                 : 128 Kbps\r\nMaximum bit rate                         : 576 Kbps\r\nChannel(s)                               : 2 channels\r\nChannel positions                        : Front: L R\r\nSampling rate                            : 48.0 KHz\r\nFrame rate                               : 46.875 fps (1024 spf)\r\nCompression mode                         : Lossy\r\nStream size                              : 43.6 MiB (12%)","torrent":{"xt":"urn:btih:0de585b161fe5b78ea659a5271c9cd5d2b99fdd2","amp;dn":"See+No+Evil+-+S01E05+-+Mansion+Murder+Cam","amp;tr":["udp%3A%2F%2Ftracker.leechers-paradise.org%3A6969","udp%3A%2F%2Fzer0day.ch%3A1337","udp%3A%2F%2Fopen.demonii.com%3A1337","udp%3A%2F%2Ftracker.coppersurfer.tk%3A6969","udp%3A%2F%2Fexodus.desync.com%3A6969"],"infoHash":"0de585b161fe5b78ea659a5271c9cd5d2b99fdd2","infoHashBuffer":{"type":"Buffer","data":[13,229,133,177,97,254,91,120,234,101,154,82,113,201,205,93,43,153,253,210]},"announce":[],"urlList":[]}}